# xmcd CD database file
#
# Track frame offsets:
#	150
#	11195
#	48933
#	72364
#	90331
#	114180
#	136739
#	164477
#	192570
#	207057
#	272738
#
# Disc length: 4499 seconds
#
# Revision: 0
# Processed by: cddbd v1.5.2PL0 Copyright (c) Steve Scherf et al.
# Submitted via: CDex 1.70beta2
#
DISCID=9311910b
DTITLE=Move Ya - Chi Yoga
DYEAR=1900
DGENRE=New Age
TTITLE0=The Sushi Club
TTITLE1=The Shushi Club
TTITLE2=Lux
TTITLE3=Back to Earth
TTITLE4=Kamai Mystery
TTITLE5=Kamai  Mistrail
TTITLE6=Rick Wakeman
TTITLE7=Rick Wakeman
TTITLE8=Chicane
TTITLE9=Yoga Track 2
TTITLE10=Yoga Track 4
EXTD=
EXTT0=
EXTT1=
EXTT2=
EXTT3=
EXTT4=
EXTT5=
EXTT6=
EXTT7=
EXTT8=
EXTT9=
EXTT10=
PLAYORDER=
